<svg xmlns="http://www.w3.org/2000/svg" version="1.0" width="250px" height="250px" viewBox="0 0 300 300" preserveAspectRatio="xMidYMid meet" transform="matrix(1, 0, 0, 1, 0, 0)">
<metadata fill="#0e27b3">
Created by potrace 1.10, written by Peter Selinger 2001-2011
</metadata>
<g transform="translate(0.000000,300.000000) scale(0.100000,-0.100000)" fill="#0e27b3" stroke="none">
<path d="M656 2780 c-53 -16 -105 -61 -131 -113 -23 -47 -25 -62 -25 -179 l0 -128 -72 0 c-82 0 -136 -20 -181 -66 -66 -66 -62 -18 -65 -804 -2 -514 0 -727 9 -756 14 -54 60 -109 112 -137 42 -22 46 -22 485 -22 389 0 442 -2 438 -15 -3 -8 -18 -62 -34 -119 l-29 -105 -99 3 c-85 2 -103 0 -121 -16 -35 -30 -38 -59 -9 -88 l25 -25 541 0 541 0 24 25 c31 30 31 44 4 80 -22 27 -23 27 -127 23 l-106 -3 -13 55 c-7 30 -15 64 -18 76 -3 12 -11 40 -19 62 l-15 42 437 3 c240 1 444 6 452 9 8 3 25 9 38 13 12 4 22 11 22 16 0 5 5 9 11 9 14 0 45 36 69 82 19 35 19 62 20 757 0 480 -3 721 -10 721 -5 0 -9 3 -9 8 1 4 1 12 0 19 -1 16 -99 113 -114 114 -7 0 -21 3 -32 6 -11 4 -51 6 -90 6 l-70 1 2 144 c2 79 0 149 -4 156 -4 6 -8 16 -9 23 -3 18 -46 72 -73 91 -63 42 -48 42 -904 41 -452 0 -835 -4 -851 -9z m1704 -39 c32 -17 78 -60 93 -86 7 -11 14 -85 17 -168 6 -175 4 -171 114 -180 103 -8 150 -36 190 -114 14 -29 16 -107 16 -731 0 -495 -3 -709 -11 -733 -16 -46 -56 -88 -106 -111 -39 -17 -71 -18 -457 -18 -263 1 -423 -3 -435 -9 -31 -17 -32 -39 -6 -137 39 -145 38 -144 172 -148 43 -1 84 -6 91 -10 18 -11 14 -34 -8 -46 -25 -13 -1011 -13 -1047 1 -15 6 -23 15 -21 27 3 14 18 18 100 22 114 6 127 14 151 97 47 165 47 177 7 198 -25 13 -92 15 -442 15 -370 0 -417 2 -450 18 -49 23 -96 83 -103 135 -3 23 -5 357 -3 742 l3 700 29 38 c39 51 89 75 172 82 100 8 105 15 110 161 2 66 9 133 15 151 14 45 79 100 126 108 21 4 42 7 46 9 5 1 369 1 810 1 661 0 806 -2 827 -14z" fill="#0e27b3"/>
<path d="M663 2680 c-50 -26 -73 -69 -73 -139 0 -42 5 -57 25 -76 l24 -25 303 -1 c167 0 310 -3 319 -7 10 -4 43 -29 74 -57 32 -27 64 -54 72 -58 15 -9 940 -10 954 -1 34 21 -30 24 -465 24 l-473 0 -49 42 c-27 24 -60 53 -74 65 -25 23 -27 23 -352 23 l-328 0 5 73 c5 61 10 76 31 95 l25 22 797 2 c438 0 808 0 822 -1 14 -1 36 -14 49 -29 22 -27 23 -35 22 -159 -2 -120 7 -168 23 -127 11 29 6 252 -6 279 -6 14 -25 34 -43 45 -29 18 -64 19 -835 25 l-805 7 -42 -22z" fill="#0e27b3"/>
<path d="M1496 2561 c-29 -30 -32 -48 -15 -85 35 -75 153 -39 141 43 -9 65 -81 89 -126 42z m78 -30 c14 -15 15 -24 6 -40 -11 -22 -26 -26 -54 -15 -30 11 -13 74 19 74 7 0 20 -9 29 -19z" fill="#0e27b3"/>
<path d="M1805 2558 c-34 -40 -32 -70 7 -103 37 -31 71 -28 104 9 41 45 10 112 -54 120 -25 4 -36 -1 -57 -26z m89 -30 c15 -24 -3 -52 -37 -56 -28 -4 -43 23 -32 59 8 25 52 23 69 -3z" fill="#0e27b3"/>
<path d="M2105 2566 c-52 -52 -22 -130 51 -130 94 0 97 136 5 150 -24 4 -37 -1 -56 -20z m80 -56 c0 -31 -3 -35 -27 -38 -19 -2 -30 3 -38 17 -16 32 4 63 38 59 24 -3 27 -7 27 -38z" fill="#0e27b3"/>
<path d="M606 2355 c-14 -22 -16 -84 -16 -579 0 -491 -2 -555 -16 -567 -28 -23 -34 9 -34 176 1 88 -2 313 -5 500 -5 273 -9 344 -21 363 -13 19 -23 22 -85 22 -67 0 -71 -1 -112 -39 l-42 -40 -3 -584 -2 -585 27 -22 28 -23 1175 7 c1010 6 1178 9 1198 22 l22 14 0 561 c0 482 -2 564 -15 589 -34 66 -162 94 -210 46 l-24 -24 -1 -488 c0 -342 -4 -491 -11 -501 -17 -20 -39 -16 -49 11 -5 14 -9 236 -9 501 -1 307 -5 483 -11 495 -6 11 -21 22 -33 25 -12 3 -234 6 -493 7 l-472 3 -58 51 c-107 91 -72 84 -410 84 l-302 0 -16 -25z m697 -75 l81 -71 495 3 496 3 -3 -496 c-1 -314 1 -506 8 -523 17 -47 84 -54 112 -12 5 6 8 241 7 521 l0 510 58 -3 c32 -2 67 -6 78 -9 26 -7 56 -33 50 -44 -3 -4 -1 -10 5 -14 7 -4 10 -198 10 -568 l0 -562 -1195 2 -1196 3 1 576 c0 364 4 583 10 595 16 28 42 38 114 43 l66 3 0 -520 c0 -470 2 -522 17 -539 33 -36 96 -16 108 35 3 12 5 273 3 580 l-3 557 298 0 298 0 82 -70z" fill="#0e27b3"/>
<path d="M1562 2053 c-17 -6 -26 -30 -69 -178 -19 -66 -41 -140 -48 -165 -7 -25 -30 -101 -50 -170 -20 -69 -41 -140 -46 -158 -12 -39 6 -76 42 -87 25 -8 65 11 72 34 9 29 144 488 159 541 5 19 16 54 24 78 8 24 11 54 8 68 -9 36 -51 53 -92 37z m52 -73 c-2 -40 -3 -46 -72 -270 -27 -91 -60 -201 -72 -245 -27 -96 -45 -135 -66 -135 -35 0 -30 30 48 290 11 36 39 134 64 219 24 85 49 160 56 168 21 25 43 11 42 -27z" fill="#0e27b3"/>
<path d="M1063 1828 c-82 -81 -133 -139 -133 -152 0 -12 52 -72 132 -153 103 -104 138 -133 158 -133 34 0 60 28 60 66 0 24 -18 47 -99 125 l-99 96 99 99 c105 104 119 133 81 167 -39 36 -61 23 -199 -115z m175 69 c2 -11 -29 -51 -87 -111 -50 -52 -91 -102 -91 -111 0 -9 41 -59 91 -111 90 -93 106 -125 66 -132 -19 -4 -247 223 -247 245 0 8 51 66 114 129 113 115 146 135 154 91z" fill="#0e27b3"/>
<path d="M1737 1942 c-35 -39 -23 -64 81 -166 l99 -97 -99 -98 c-80 -80 -98 -103 -98 -128 0 -35 27 -63 61 -63 31 0 289 256 289 287 0 12 -50 69 -130 149 -138 137 -169 154 -203 116z m183 -135 c77 -75 110 -114 110 -130 0 -16 -35 -57 -113 -135 -113 -111 -147 -131 -161 -95 -7 17 29 59 117 141 21 20 44 47 52 62 18 35 2 60 -94 155 -69 67 -89 107 -58 118 19 7 29 -1 147 -116z" fill="#0e27b3"/>
<path d="M294 908 c-25 -20 -26 -25 -22 -94 3 -64 7 -77 31 -102 15 -16 45 -34 65 -40 52 -15 2198 -4 2262 12 63 16 90 58 90 142 0 36 -4 64 -10 64 -6 0 -10 -26 -10 -58 0 -32 -5 -63 -12 -70 -7 -7 -9 -12 -4 -12 4 0 -5 -11 -20 -25 l-27 -25 -1139 0 -1139 0 -24 25 c-21 20 -25 34 -25 79 0 30 -3 61 -6 70 -6 15 103 16 1190 16 695 0 1196 4 1196 9 0 5 -6 11 -12 14 -7 2 -310 5 -673 6 -363 1 -890 3 -1172 6 -506 3 -512 3 -539 -17z" fill="#0e27b3"/>
<path d="M1363 600 c-28 -11 -45 -46 -72 -143 -42 -155 -38 -158 199 -157 187 2 227 9 236 45 6 26 -28 171 -51 216 -8 15 -24 30 -34 34 -32 10 -254 14 -278 5z m310 -133 c15 -56 30 -109 33 -117 4 -13 -23 -15 -206 -15 -183 0 -210 2 -206 15 3 8 17 61 33 118 l28 102 145 0 145 0 28 -103z" fill="#0e27b3"/>
</g>
</svg>