<svg xmlns="http://www.w3.org/2000/svg" version="1.0" width="250px" height="250px" viewBox="0 0 300 300" preserveAspectRatio="xMidYMid meet">
<metadata fill="#3011e8">
Created by potrace 1.10, written by Peter Selinger 2001-2011
</metadata>
<g transform="translate(0.000000,300.000000) scale(0.100000,-0.100000)" fill="#3011e8" stroke="none">
<path d="M138 2943 c-39 -6 -115 -81 -123 -120 -7 -36 9 -46 20 -13 8 24 53 80 65 80 5 0 -2 -12 -17 -27 -14 -16 -29 -38 -34 -51 -5 -13 -9 -140 -9 -282 0 -256 0 -259 23 -286 l23 -27 -23 -23 -23 -23 0 -650 c0 -357 3 -656 6 -665 3 -9 10 -13 15 -10 5 3 9 290 9 672 l0 667 1430 0 1430 0 0 -983 c0 -854 -2 -988 -15 -1016 -31 -65 46 -61 -1121 -64 l-1062 -2 -4 31 c-4 26 2 38 36 73 l40 42 81 -24 c107 -32 117 -32 131 -2 19 39 82 292 77 307 -5 12 -20 19 -62 28 -12 3 -29 7 -38 10 -10 2 -35 9 -56 14 -46 11 -44 10 -51 41 -3 14 -9 38 -14 54 -8 28 -4 34 60 94 41 39 68 73 68 85 0 25 -215 246 -236 243 -8 -1 -47 -34 -87 -74 -70 -68 -73 -70 -97 -57 -14 8 -37 14 -52 15 -28 0 -31 7 -54 100 -2 8 -8 33 -13 54 -11 44 -27 59 -56 51 -34 -10 -59 -16 -84 -21 -14 -3 -28 -7 -33 -10 -4 -3 -17 -7 -28 -10 -46 -10 -57 -12 -96 -23 -23 -6 -46 -17 -52 -24 -10 -13 -9 -17 8 -82 6 -22 12 -47 14 -55 3 -8 9 -27 14 -41 9 -21 7 -28 -9 -40 -11 -8 -32 -29 -46 -48 l-26 -34 28 7 c28 7 28 7 -13 -38 l-43 -46 1 -272 c1 -257 2 -273 22 -300 11 -16 18 -31 16 -34 -3 -2 -17 14 -32 37 -31 45 -41 46 -31 0 8 -38 73 -97 122 -110 54 -15 2673 -15 2727 0 57 16 115 75 123 124 6 36 5 39 -10 26 -16 -13 -17 54 -17 975 l0 988 -22 23 -21 23 22 23 c21 24 22 27 19 295 -3 265 -3 270 16 254 18 -16 19 -16 13 23 -8 49 -66 108 -123 124 -27 8 -446 10 -1369 9 -731 0 -1342 -3 -1357 -5z m2740 -83 c48 -32 52 -59 52 -344 l0 -266 -1430 0 -1430 0 0 264 c0 170 4 274 11 296 9 23 23 37 53 51 40 18 89 19 1381 16 1168 -2 1343 -4 1363 -17z m-2447 -1717 c5 -14 8 -31 5 -37 -2 -6 -7 -2 -11 9 -4 11 -17 28 -29 37 l-21 18 23 0 c15 0 26 -8 33 -27z m-30 -25 c0 -7 2 -20 4 -28 2 -8 11 -41 18 -73 8 -33 19 -62 23 -66 5 -4 36 -13 69 -20 33 -7 71 -20 83 -28 23 -14 26 -12 95 56 l71 72 78 -78 78 -78 -67 -67 -66 -67 21 -71 c12 -39 19 -77 16 -85 -8 -21 32 -41 119 -60 64 -14 78 -20 74 -34 -3 -9 -15 -52 -27 -96 -12 -44 -23 -85 -25 -92 -3 -8 -27 -4 -82 13 -43 13 -84 24 -91 24 -7 0 -44 -32 -82 -70 l-69 -70 14 -40 14 -40 -244 0 c-204 0 -251 3 -286 17 -66 26 -69 41 -69 353 0 149 4 269 9 266 4 -3 41 26 81 65 l73 70 -22 77 c-12 42 -24 85 -28 95 -4 13 0 17 18 17 12 0 36 4 53 10 145 45 146 45 147 28z m-218 -25 c-13 -8 -23 -25 -24 -37 0 -17 -2 -16 -11 8 -12 31 0 46 37 45 19 0 19 -1 -2 -16z m608 -39 c12 -15 11 -16 -9 -10 -23 8 -52 -6 -86 -39 -9 -9 -16 -13 -16 -9 0 14 64 71 81 73 9 0 23 -6 30 -15z m68 -60 c18 -19 31 -37 29 -40 -3 -2 -21 14 -41 36 -19 22 -32 40 -28 40 4 0 22 -16 40 -36z m93 -137 c-9 -11 -33 -36 -53 -56 -19 -20 -43 -47 -52 -60 -9 -14 -19 -22 -22 -19 -3 3 0 12 7 19 7 8 37 40 65 72 52 58 53 58 36 85 l-17 27 27 -24 c26 -23 26 -25 9 -44z m104 -351 c1 -15 -3 -29 -7 -32 -5 -3 -9 1 -9 8 0 7 -3 24 -7 37 -4 18 -2 22 8 19 8 -3 14 -17 15 -32z m-62 -228 c-9 -30 -8 -30 -35 -19 -18 7 -19 10 -6 10 10 1 20 8 23 16 10 24 26 17 18 -7z m-284 -74 c-24 -45 -15 -73 31 -96 30 -16 31 -18 12 -19 -33 -3 -68 -2 -105 0 l-33 3 29 8 c37 12 45 25 39 65 -4 25 0 37 18 54 12 11 24 21 25 21 1 0 -6 -16 -16 -36z" fill="#3011e8"/>
<path d="M400 2682 c-105 -52 -105 -193 0 -247 114 -58 239 89 167 196 -24 35 -77 68 -112 68 -11 0 -36 -8 -55 -17z m94 -73 c52 -41 22 -120 -45 -114 -83 7 -77 128 7 134 6 1 23 -8 38 -20z" fill="#3011e8"/>
<path d="M771 2678 c-125 -61 -87 -245 52 -253 156 -10 199 199 54 260 -47 19 -54 19 -106 -7z m98 -67 c52 -40 17 -126 -46 -115 -41 8 -53 22 -53 65 0 28 6 42 22 53 29 21 47 20 77 -3z" fill="#3011e8"/>
<path d="M1165 2688 c-148 -52 -108 -277 47 -262 49 4 72 17 104 59 24 31 26 41 21 87 -7 58 -33 92 -86 114 -38 16 -45 16 -86 2z m79 -79 c46 -36 28 -104 -30 -112 -36 -5 -74 26 -74 60 0 26 41 73 63 73 8 0 26 -9 41 -21z" fill="#3011e8"/>
<path d="M1848 2589 c-21 -12 -23 -40 -6 -57 9 -9 117 -12 424 -12 357 0 415 2 428 15 15 16 11 44 -8 57 -17 12 -818 9 -838 -3z" fill="#3011e8"/>
<path d="M349 815 c-99 -36 -170 -117 -188 -212 -23 -119 38 -251 139 -303 58 -29 133 -43 174 -32 20 6 36 8 36 6 0 -2 22 7 48 20 99 50 156 138 158 246 2 118 -54 209 -160 260 -71 33 -143 39 -207 15z m180 -80 c95 -48 137 -145 107 -247 -43 -148 -208 -197 -335 -101 -55 42 -86 139 -68 213 32 130 177 196 296 135z m-205 -399 c10 -3 16 -9 13 -13 -10 -9 -70 36 -97 72 -8 11 4 4 25 -16 22 -20 49 -39 59 -43z" fill="#3011e8"/>
<path d="M318 1909 c-19 -11 -24 -44 -8 -54 5 -3 206 -6 447 -6 391 0 438 2 446 16 6 11 3 22 -9 36 -16 18 -35 19 -438 19 -267 0 -427 -4 -438 -11z" fill="#3011e8"/>
<path d="M1780 1648 c-9 -20 -128 -448 -196 -708 -22 -82 -37 -138 -48 -175 -26 -88 -27 -97 -15 -111 27 -33 59 -10 75 56 13 58 30 118 49 185 9 28 17 59 20 70 2 11 33 128 69 260 110 402 112 411 97 429 -19 23 -40 20 -51 -6z" fill="#3011e8"/>
<path d="M1263 1328 c-90 -90 -163 -168 -163 -173 0 -6 76 -86 168 -178 168 -167 190 -183 206 -141 9 24 -4 41 -149 184 l-136 134 148 148 c126 126 146 151 137 166 -25 39 -46 25 -211 -140z m-86 -151 c-14 -22 -14 -27 4 -56 10 -17 26 -34 34 -37 8 -4 15 -11 15 -17 0 -12 -67 49 -81 74 -6 12 -2 25 12 43 26 33 38 26 16 -7z" fill="#3011e8"/>
<path d="M1885 1469 c-6 -18 17 -46 139 -168 l146 -146 -145 -145 c-80 -80 -145 -153 -145 -162 0 -10 9 -22 21 -29 19 -10 36 4 181 148 88 87 164 166 170 176 8 16 -14 43 -153 183 -167 168 -200 190 -214 143z m325 -315 c0 -6 -7 -18 -16 -25 -15 -12 -16 -11 -10 9 5 15 2 32 -10 50 l-17 27 27 -24 c14 -14 26 -30 26 -37z" fill="#3011e8"/>
<path d="M2261 776 c-7 -8 -10 -24 -6 -36 6 -19 13 -20 231 -20 199 0 225 2 231 16 3 9 2 24 -4 33 -15 23 -434 29 -452 7z" fill="#3011e8"/>
<path d="M2265 576 c-15 -11 -17 -18 -9 -35 9 -21 14 -22 229 -22 188 0 221 2 230 16 7 10 6 21 -1 32 -10 16 -34 18 -220 21 -168 2 -214 0 -229 -12z" fill="#3011e8"/>
<path d="M2259 364 c-9 -11 -10 -20 -2 -32 9 -15 36 -17 228 -17 190 0 219 2 228 16 6 9 7 24 4 33 -6 14 -32 16 -225 16 -188 0 -221 -2 -233 -16z" fill="#3011e8"/>
</g>
</svg>