<?xml version="1.0" standalone="no"?>
<!DOCTYPE svg PUBLIC "-//W3C//DTD SVG 20010904//EN"
 "http://www.w3.org/TR/2001/REC-SVG-20010904/DTD/svg10.dtd">
<svg version="1.0" xmlns="http://www.w3.org/2000/svg"
 width="512.000000pt" height="512.000000pt" viewBox="0 0 512.000000 512.000000"
 preserveAspectRatio="xMidYMid meet">
<metadata>
Created by potrace 1.10, written by Peter Selinger 2001-2011
</metadata>
<g transform="translate(0.000000,512.000000) scale(0.100000,-0.100000)"
fill="#000000" stroke="none">
<path d="M2521 4073 c-5 -10 -31 -79 -59 -153 -28 -74 -228 -611 -446 -1193
-218 -581 -396 -1062 -396 -1067 0 -6 54 -10 139 -10 123 0 140 2 146 18 45
116 905 2414 905 2417 0 3 -63 5 -140 5 -122 0 -140 -2 -149 -17z"/>
<path d="M1035 3641 c-181 -98 -487 -264 -680 -369 l-350 -190 -3 -208 -2
-209 37 -21 c21 -12 171 -93 333 -181 162 -89 385 -210 495 -270 275 -151 502
-273 509 -273 3 0 6 107 6 238 l0 238 -480 239 c-263 132 -477 241 -475 244 3
2 217 106 477 231 l473 228 3 241 c1 133 -1 241 -5 241 -5 0 -156 -81 -338
-179z"/>
<path d="M3122 3583 l3 -238 115 -57 c63 -32 278 -138 478 -236 l363 -178
-480 -239 -481 -239 0 -239 c0 -221 1 -239 17 -233 9 4 166 88 348 187 181
100 484 265 673 368 l342 186 -2 209 -3 208 -235 127 c-129 70 -399 216 -600
325 -532 289 -526 286 -534 286 -3 0 -5 -107 -4 -237z"/>
</g>
</svg>
